HIERARCHY
ROOT Hips
{
	OFFSET 0.000000 0.000000 0.000000
	CHANNELS 6 Xposition Yposition Zposition Zrotation Yrotation Xrotation 
	JOINT LeftUpLeg_virtual
	{
		OFFSET 0.000000 0.000000 0.000000
		CHANNELS 3 Zrotation Yrotation Xrotation
		JOINT LeftUpLeg
		{
			OFFSET 8.479694 -4.795517 -0.379053
			CHANNELS 3 Zrotation Yrotation Xrotation
			JOINT LeftLeg
			{
				OFFSET 0.485052 -32.551468 0.112863
				CHANNELS 3 Zrotation Yrotation Xrotation
				JOINT LeftFoot
				{
					OFFSET 0.438033 -32.635670 -3.012641
					CHANNELS 3 Zrotation Yrotation Xrotation
					JOINT LeftToeBase
					{
						OFFSET 0.970169 -13.225353 11.864223
						CHANNELS 3 Zrotation Yrotation Xrotation
						End Site
						{
							OFFSET 0.000000 0.000000 0.000000
						}
					}
				}
			}
		}
	}
	JOINT RightUpLeg_virtual
	{
		OFFSET 0.000000 0.000000 0.000000
		CHANNELS 3 Zrotation Yrotation Xrotation
		JOINT RightUpLeg
		{
			OFFSET -8.479694 -4.795517 -0.379053
			CHANNELS 3 Zrotation Yrotation Xrotation
			JOINT RightLeg
			{
				OFFSET -0.484100 -32.551483 0.112903
				CHANNELS 3 Zrotation Yrotation Xrotation
				JOINT RightFoot
				{
					OFFSET -0.438985 -32.635651 -3.012681
					CHANNELS 3 Zrotation Yrotation Xrotation
					JOINT RightToeBase
					{
						OFFSET -0.970169 -13.225354 11.864223
						CHANNELS 3 Zrotation Yrotation Xrotation
						End Site
						{
							OFFSET 0.000000 0.000000 0.000000
						}
					}
				}
			}
		}
	}
	JOINT Spine_virtual
	{
		OFFSET 0.000000 0.000000 0.000000
		CHANNELS 3 Zrotation Yrotation Xrotation
		JOINT Spine
		{
			OFFSET 0.000000 7.722015 1.166203
			CHANNELS 3 Zrotation Yrotation Xrotation
			JOINT Spine1
			{
				OFFSET 0.000000 12.024086 0.248766
				CHANNELS 3 Zrotation Yrotation Xrotation
				JOINT Spine2
				{
					OFFSET -0.000000 11.503036 -0.491240
					CHANNELS 3 Zrotation Yrotation Xrotation
					JOINT Neck_virtual
					{
						OFFSET 0.000000 0.000000 0.000000
						CHANNELS 3 Zrotation Yrotation Xrotation
						JOINT Neck
						{
							OFFSET 0.000000 18.430687 -3.123054
							CHANNELS 3 Zrotation Yrotation Xrotation
							JOINT Head
							{
								OFFSET -0.000000 9.051071 1.034021
								CHANNELS 3 Zrotation Yrotation Xrotation
								End Site
								{
									OFFSET 0.000000 0.000000 0.000000
								}
							}
						}
					}
					JOINT LeftShoulder_virtual
					{
						OFFSET 0.000000 0.000000 0.000000
						CHANNELS 3 Zrotation Yrotation Xrotation
						JOINT LeftShoulder
						{
							OFFSET 6.197824 13.665230 -4.064723
							CHANNELS 3 Zrotation Yrotation Xrotation
							JOINT LeftArm
							{
								OFFSET 7.778132 -0.187073 -1.709282
								CHANNELS 3 Zrotation Yrotation Xrotation
								JOINT LeftForeArm
								{
									OFFSET 21.954697 0.000000 -2.041093
									CHANNELS 3 Zrotation Yrotation Xrotation
									JOINT LeftHand
									{
										OFFSET 22.992908 0.000000 -0.870901
										CHANNELS 3 Zrotation Yrotation Xrotation
										End Site
										{
											OFFSET 0.000000 0.000000 0.000000
										}
									}
								}
							}
						}
					}
					JOINT RightShoulder_virtual
					{
						OFFSET 0.000000 0.000000 0.000000
						CHANNELS 3 Zrotation Yrotation Xrotation
						JOINT RightShoulder
						{
							OFFSET -6.197824 13.665230 -4.064723
							CHANNELS 3 Zrotation Yrotation Xrotation
							JOINT RightArm
							{
								OFFSET -7.778132 -0.187073 -1.709282
								CHANNELS 3 Zrotation Yrotation Xrotation
								JOINT RightForeArm
								{
									OFFSET -21.954697 0.000000 -2.041093
									CHANNELS 3 Zrotation Yrotation Xrotation
									JOINT RightHand
									{
										OFFSET -22.992908 0.000000 -0.870901
										CHANNELS 3 Zrotation Yrotation Xrotation
										End Site
										{
											OFFSET 0.000000 0.000000 0.000000
										}
									}
								}
							}
						}
					}
				}
			}
		}
	}
}
MOTION
Frames: 14
Frame Time: 0.033333
-4.559571 75.172897 14.039226 -179.989063 -20.712233 -179.944926 -1.974159 -0.383761 7.488091 -0.177284 9.915704 -12.426700 9.690226 5.354696 44.078947 -8.925968 -9.773523 -22.479805 0.000000 0.000000 0.000000 1.762109 -1.156530 6.057065 -12.645139 1.170138 -41.336797 -1.011261 3.939020 39.170513 9.921429 3.167102 8.291097 0.000000 0.000000 0.000000 1.434237 1.273414 -4.916448 -2.383096 2.016683 -4.004993 -0.421021 -2.331069 7.749514 -0.038736 -0.140969 0.002041 -0.556702 -0.835375 8.131290 1.371855 -5.090357 1.610665 0.000000 0.000000 0.000000 1.255717 -0.572321 5.205464 1.406079 -1.564450 -1.557658 -62.722740 -59.309825 8.056434 133.232785 -82.775527 -113.533173 0.000000 0.000000 0.000000 -3.281786 1.269729 3.710621 2.023873 7.147451 1.068774 14.989484 8.499939 -54.094555 -176.566633 61.325987 -179.042672 0.000000 0.000000 0.000000 
-4.424577 75.461525 14.856709 -179.877512 -21.474596 -179.993175 -2.359379 -0.417013 6.689905 -0.116699 9.567354 -12.386570 10.442676 6.280388 44.231287 -8.687449 -9.117590 -22.813139 0.000000 0.000000 0.000000 1.474954 -1.027193 5.742353 -11.347996 1.035801 -39.963628 -0.280508 4.113678 42.196212 9.081548 4.258177 8.130760 0.000000 0.000000 0.000000 0.897834 0.840337 -5.833889 -3.016338 1.982264 -4.005861 -0.654868 -2.189990 7.947082 -0.032361 -0.283154 0.042432 -0.838790 -0.577431 8.457076 0.948744 -5.327142 2.521121 0.000000 0.000000 0.000000 0.964586 -0.310840 5.521815 1.372726 -3.213217 -1.538879 -65.063569 -57.030584 9.460187 137.298168 -82.123135 -116.604621 0.000000 0.000000 0.000000 -3.501623 1.545909 3.951623 1.208079 6.446425 1.079609 15.465848 7.463335 -53.283228 -176.213075 61.937187 -178.414609 0.000000 0.000000 0.000000 
-4.190580 75.713615 15.441053 -179.890053 -21.226322 -179.746769 -2.644948 -0.136083 5.940309 0.317176 9.172134 -12.503042 10.781593 6.860130 44.407052 -8.640294 -8.775116 -22.195422 0.000000 0.000000 0.000000 1.317950 -1.100322 5.529773 -10.422715 1.402436 -38.797711 -0.378625 4.977782 44.049464 8.201354 4.494359 7.081462 0.000000 0.000000 0.000000 0.352364 0.501277 -7.051962 -3.658040 2.195281 -4.053538 -0.843838 -1.779610 8.167824 -0.006461 -0.234031 0.076336 -1.197084 -0.441778 8.878234 0.401608 -5.412714 3.379782 0.000000 0.000000 0.000000 0.634330 -0.122103 5.862142 1.339096 -5.002206 -1.369072 -67.158293 -55.053729 10.413862 141.448628 -81.390679 -119.815479 0.000000 0.000000 0.000000 -3.750736 1.779165 4.323596 0.315386 5.738487 1.137772 16.118924 6.661549 -52.275071 -175.900362 62.718362 -177.811435 0.000000 0.000000 0.000000 
-3.856309 75.848473 15.864046 -179.811068 -20.552446 -179.501934 -3.025332 0.007190 5.297436 0.747867 8.793324 -12.872612 10.928893 7.278162 44.994411 -8.498821 -8.497850 -21.765955 0.000000 0.000000 0.000000 0.995247 -1.543923 5.380591 -9.949582 1.453302 -37.727216 -0.363898 5.950681 44.717757 8.078626 5.070770 6.240667 0.000000 0.000000 0.000000 -0.097226 0.229286 -8.403417 -4.222171 2.426117 -4.071968 -1.010290 -1.422033 8.445794 -0.048294 -0.210050 0.134570 -1.382734 -0.022364 9.273729 -0.085024 -5.525144 4.333568 0.000000 0.000000 0.000000 0.506675 0.312525 6.221402 1.307938 -6.738317 -1.195228 -69.429392 -53.112856 11.879628 145.929095 -80.627071 -123.371767 0.000000 0.000000 0.000000 -3.901066 2.102682 4.638545 -0.691247 5.160290 1.131896 16.808404 6.108654 -51.437188 -175.294346 63.596820 -176.872530 0.000000 0.000000 0.000000 
-3.434237 75.891655 16.141228 -179.747384 -20.353576 -179.567313 -3.310428 -0.247037 4.962044 1.296259 8.308978 -13.213703 10.976223 7.212274 45.894001 -8.275001 -8.209023 -21.366077 0.000000 0.000000 0.000000 0.690308 -1.853800 4.914202 -9.684455 1.368876 -37.151062 -0.022193 6.412375 44.332982 9.135688 6.705324 5.879178 0.000000 0.000000 0.000000 -0.519983 -0.323009 -9.638880 -4.779275 2.530947 -3.944649 -1.168677 -1.133677 8.878424 -0.042248 -0.247166 0.128639 -1.477153 0.143922 9.757432 -0.472064 -5.670950 5.141245 0.000000 0.000000 0.000000 0.298206 0.476971 6.654009 1.166679 -8.572027 -0.992026 -71.433759 -51.173239 13.523337 149.079138 -80.078688 -125.555857 0.000000 0.000000 0.000000 -4.074960 2.299532 4.964472 -1.617924 4.620396 1.339257 17.282916 5.706168 -50.499229 -174.618581 64.607579 -175.837729 0.000000 0.000000 0.000000 
-2.938041 75.844559 16.308878 -179.675325 -20.179085 -179.686199 -3.521723 -0.572005 4.796466 1.887114 7.951596 -13.645891 10.879549 6.953845 46.904494 -8.077063 -7.960532 -21.210837 0.000000 0.000000 0.000000 0.436559 -2.064956 4.506007 -9.529687 1.208017 -36.466459 0.319433 6.723882 43.756514 10.523853 8.144973 5.841622 0.000000 0.000000 0.000000 -0.908844 -0.675496 -10.725113 -5.296077 2.514688 -3.896509 -1.304381 -1.030392 9.337818 0.032255 -0.385814 0.104671 -1.642307 0.587929 10.272683 -0.958567 -5.697444 6.014205 0.000000 0.000000 0.000000 0.047460 0.731712 7.103855 0.753451 -10.180530 -0.563470 -73.160492 -49.195288 15.578605 151.155829 -79.645709 -126.694217 0.000000 0.000000 0.000000 -4.256933 2.620255 5.414215 -2.662347 4.312516 1.265561 17.872481 5.628647 -49.337322 -174.135564 65.577739 -174.957112 0.000000 0.000000 0.000000 
-2.366932 75.715294 16.374401 -179.674260 -19.998596 -179.876133 -3.658117 -0.974038 4.710054 2.513162 7.687678 -14.001062 10.664073 6.525331 47.929517 -7.987361 -7.735102 -21.327288 0.000000 0.000000 0.000000 0.335085 -2.224377 4.006070 -9.160301 0.722871 -35.767795 0.785181 6.397442 43.469028 10.991645 8.634240 5.804367 0.000000 0.000000 0.000000 -1.278967 -1.136802 -11.572598 -5.694888 2.315064 -3.852438 -1.488960 -0.833439 9.845935 -0.002491 -0.388962 0.046428 -1.777498 1.011230 10.872592 -1.534995 -5.582422 6.786681 0.000000 0.000000 0.000000 -0.131661 1.133244 7.522919 0.320959 -11.544019 -0.119083 -74.288191 -47.160032 17.485286 152.895998 -79.632759 -127.551037 0.000000 0.000000 0.000000 -4.273771 2.981027 6.042970 -3.618823 4.197730 1.278640 18.159158 5.915398 -47.835524 -173.480385 66.699140 -173.878735 0.000000 0.000000 0.000000 
-1.720249 75.502548 16.354221 -179.669752 -18.793161 179.849304 -3.695347 -0.843686 4.704779 3.110938 7.868379 -14.187354 10.337959 6.411809 48.901026 -8.060048 -7.516043 -21.839665 0.000000 0.000000 0.000000 0.270628 -2.286441 3.324438 -8.833769 0.911763 -35.351860 1.454361 6.170127 43.754236 10.942757 8.710562 5.515863 0.000000 0.000000 0.000000 -1.475706 -1.256006 -12.165550 -5.933162 2.973342 -3.859113 -1.657674 -0.444129 10.364574 -0.019024 -0.254830 0.031421 -1.889400 1.212137 11.378112 -1.896412 -5.712991 7.426113 0.000000 0.000000 0.000000 -0.430733 1.453281 7.975877 -0.223590 -12.808988 0.106068 -74.950603 -45.070291 19.120042 153.414627 -79.688227 -127.258445 0.000000 0.000000 0.000000 -4.435364 3.191327 6.492975 -4.543382 4.126807 1.669544 18.567881 6.221298 -46.114514 -172.352379 67.705309 -172.292505 0.000000 0.000000 0.000000 
-1.088377 75.223068 16.269182 -179.700570 -17.901960 179.959038 -3.606832 -0.808557 4.548909 3.653123 8.219291 -14.458498 9.934103 6.316428 49.742178 -8.395432 -7.401936 -22.538550 0.000000 0.000000 0.000000 0.401469 -3.098522 3.202846 -8.476116 1.052352 -35.750945 2.328144 6.169431 43.813502 10.019018 8.270605 4.663378 0.000000 0.000000 0.000000 -1.627545 -1.071577 -12.764742 -6.073889 3.280855 -3.992472 -1.868909 -0.357310 10.786890 -0.048568 -0.196953 0.010366 -2.266249 1.479112 11.929466 -2.460574 -5.632047 7.957000 0.000000 0.000000 0.000000 -0.604362 1.678352 8.425207 -0.714099 -13.524166 0.656701 -75.054456 -43.141066 20.034477 154.456996 -79.916423 -127.540983 0.000000 0.000000 0.000000 -4.694426 3.467371 7.159035 -5.376344 4.226373 1.481203 19.179441 6.463651 -44.001523 -172.106697 68.869931 -171.573997 0.000000 0.000000 0.000000 
-0.466088 74.948090 16.111643 -179.584689 -17.929040 179.559922 -3.319734 -1.136192 4.709280 4.197895 8.521119 -14.437814 9.550600 6.102596 50.511701 -8.898253 -7.298019 -23.033963 0.000000 0.000000 0.000000 -0.128082 -3.154661 2.480918 -7.325709 1.313052 -34.518014 2.744632 6.419737 44.169560 9.666198 7.867452 3.198154 0.000000 0.000000 0.000000 -1.392877 -1.874754 -12.933525 -6.107327 3.779960 -3.890902 -2.080524 -0.005421 11.296832 -0.007150 -0.173185 -0.034949 -2.639490 1.521258 12.421933 -2.905699 -5.663055 8.439101 0.000000 0.000000 0.000000 -1.007346 1.730289 8.851957 -1.353734 -14.031212 0.949048 -74.782341 -41.088448 20.708795 154.751323 -80.063976 -127.154326 0.000000 0.000000 0.000000 -5.024148 3.671813 7.665268 -6.122419 4.285340 1.699666 20.006628 6.468955 -41.784464 -171.471817 69.729463 -170.495127 0.000000 0.000000 0.000000 
0.165244 74.671219 15.924673 -179.524583 -17.961214 179.359716 -2.950980 -1.421500 4.833135 4.572366 8.871749 -14.518648 9.183878 5.899423 51.177276 -9.456208 -7.263480 -23.584334 0.000000 0.000000 0.000000 -0.345116 -3.659143 2.373053 -6.266529 1.311581 -34.217083 3.008542 6.800709 44.579866 8.792350 7.578339 1.153126 0.000000 0.000000 0.000000 -0.964959 -2.627440 -12.976353 -6.135849 4.040375 -3.879257 -2.334907 0.157331 11.712385 -0.037687 -0.093927 -0.033528 -2.926828 1.871098 12.834528 -3.307083 -5.763942 8.889680 0.000000 0.000000 0.000000 -1.395792 2.062503 9.183417 -1.805381 -14.337026 1.279235 -74.246342 -39.264784 21.077909 155.322354 -80.231288 -127.099425 0.000000 0.000000 0.000000 -5.295605 3.979643 8.133965 -6.699628 4.476300 1.727366 20.815481 6.476702 -39.699365 -170.858330 70.382422 -169.484860 0.000000 0.000000 0.000000 
0.760962 74.457809 15.758132 -179.483247 -18.056199 179.291988 -2.540748 -1.668254 5.011687 4.813275 9.148192 -14.663146 8.826413 5.670239 51.406667 -9.945678 -7.199630 -23.995153 0.000000 0.000000 0.000000 0.000842 -4.111725 2.469935 -5.963234 1.202251 -34.215706 3.095473 6.837458 45.111029 8.544033 7.165089 -0.469026 0.000000 0.000000 0.000000 -0.504053 -3.013931 -12.730514 -6.190026 4.733213 -3.977936 -2.550388 0.312470 12.058785 -0.029998 -0.285898 -0.096164 -3.162738 2.119776 13.213552 -3.607864 -5.930159 9.145707 0.000000 0.000000 0.000000 -1.576957 2.255339 9.743658 -2.131383 -14.738365 1.459504 -73.895345 -37.736706 21.722481 155.799593 -80.342313 -126.978995 0.000000 0.000000 0.000000 -5.505074 4.046272 8.593782 -7.160601 4.464196 1.907852 21.860070 6.318029 -37.941872 -170.242451 70.799289 -168.534918 0.000000 0.000000 0.000000 
1.282617 74.322861 15.652220 -179.429903 -18.273830 179.138377 -2.089952 -1.860374 4.749941 4.997672 9.293253 -14.151423 8.500818 5.522099 51.298388 -10.377079 -7.155314 -24.282600 0.000000 0.000000 0.000000 0.650480 -4.349336 2.613250 -5.976979 1.112189 -34.449982 2.741173 6.776800 45.323745 8.585328 6.696747 -1.754732 0.000000 0.000000 0.000000 0.093184 -3.548041 -12.149418 -6.211694 4.830417 -4.097373 -2.719889 0.379101 12.340943 -0.047492 -0.078080 -0.043363 -3.441566 2.263298 13.503045 -4.031607 -5.960956 9.479482 0.000000 0.000000 0.000000 -1.845337 2.401770 10.022183 -2.310418 -14.847715 1.789740 -73.459504 -36.607949 22.158189 155.746195 -80.478719 -126.365986 0.000000 0.000000 0.000000 -5.704099 4.315102 8.970188 -7.604821 4.567837 1.990245 22.750870 6.067273 -36.583190 -169.819772 71.023094 -167.842842 0.000000 0.000000 0.000000 
1.716062 74.260490 15.620955 -179.350891 -18.488144 178.993877 -1.717725 -1.957587 5.624441 4.918084 9.440824 -14.999107 8.214023 5.437677 51.191182 -10.698942 -7.118814 -24.311457 0.000000 0.000000 0.000000 1.466462 -4.488717 2.781567 -6.332110 1.032177 -34.634940 2.315457 6.542468 45.359484 8.951474 6.283490 -2.726373 0.000000 0.000000 0.000000 0.663432 -3.507207 -11.405840 -6.243763 5.244746 -4.222193 -2.854483 0.293191 12.590198 -0.024761 -0.226494 -0.040074 -3.581535 2.304404 13.828035 -4.258281 -6.138653 9.702481 0.000000 0.000000 0.000000 -1.965474 2.441748 10.397049 -2.459909 -15.168363 1.783576 -73.259298 -35.795437 22.841672 155.053764 -80.751482 -125.188748 0.000000 0.000000 0.000000 -5.846014 4.358594 9.246881 -7.954151 4.510522 2.110102 23.479540 5.767360 -35.490691 -169.634606 71.120533 -167.444833 0.000000 0.000000 0.000000 
